<svg id="a013e395-7377-4578-97cf-5887ff59c0da" data-name="Capa 1" xmlns="http://www.w3.org/2000/svg" width="200" height="200" viewBox="0 0 200 200"><path d="M0,44.6159c.4862-3.268.8494-6.56,1.484-9.7991A51.5078,51.5078,0,0,1,9.8236,15.59c3.1353-4.5944,7.1722-8.315,11.29-11.9065,6.0273-5.2563,15.2109-4.7557,21.1372,1.0718Q56.2893,18.5594,70.07,32.6248a31.1925,31.1925,0,0,1,5.8647,7.4426,14.1317,14.1317,0,0,1-1.799,16.16c-4.7593,5.6239-10.2022,10.668-15.3733,15.9392a16.9418,16.9418,0,0,1-2.0247,1.5049c3.6892,6.16,7.0265,12.0046,10.6224,17.6848A133.731,133.731,0,0,0,105.7323,130.9c6.3476,4.2987,13.1475,7.9248,19.7124,11.9054,1.0443.6332,1.4994-.0429,2.0654-.61,4.4262-4.437,8.8792-8.8479,13.2573-13.3322,4.1051-4.2046,8.8737-6.61,14.8916-5.8833a15.3512,15.3512,0,0,1,9.19,4.5634c9.8744,9.8593,19.6909,19.7773,29.61,29.5908a21.6216,21.6216,0,0,1,5.541,9.714v4.2638c-.8546,3.8736-2.3325,7.4523-5.2771,10.2109a125.4453,125.4453,0,0,1-10.3841,9.3137,45.5805,45.5805,0,0,1-25.0979,9.2332c-10.931.5873-21.5052-1.8077-31.83-5.193-15.0469-4.9338-28.82-12.4244-41.7663-21.477a243.0327,243.0327,0,0,1-35.7315-30.9255c-13.0588-13.5678-25.4674-27.6485-35.1831-43.9C8.8047,88.4617,4.1433,78.0182,1.8341,66.6419,1.0482,62.77.6016,58.83,0,54.92Z" style="fill:#fff"/></svg>